<?xml version="1.0" standalone="no"?>
<!DOCTYPE svg PUBLIC "-//W3C//DTD SVG 20010904//EN"
 "http://www.w3.org/TR/2001/REC-SVG-20010904/DTD/svg10.dtd">
<svg version="1.0" xmlns="http://www.w3.org/2000/svg"
 width="1024.000000pt" height="1024.000000pt" viewBox="0 0 1024.000000 1024.000000"
 preserveAspectRatio="xMidYMid meet">

<g transform="translate(0.000000,1024.000000) scale(0.100000,-0.100000)"
fill="#000000" stroke="none">
<path d="M5015 9404 c-385 -29 -659 -74 -1004 -165 -741 -197 -1491 -679
-1991 -1279 -222 -267 -372 -481 -530 -755 -193 -336 -303 -591 -433 -1010
-105 -337 -98 -301 -138 -695 -24 -241 -35 -289 -84 -363 -63 -94 -66 -211 -8
-256 31 -25 94 -44 117 -35 18 7 17 -11 -4 -186 -17 -136 -20 -220 -11 -238 6
-9 22 -84 36 -167 48 -282 82 -381 242 -720 151 -318 294 -554 499 -826 416
-549 926 -1003 1477 -1316 223 -126 643 -302 902 -377 165 -48 503 -106 725
-125 425 -36 804 -16 1207 65 224 44 581 148 757 219 103 41 442 210 531 264
100 61 345 250 435 336 47 45 134 119 195 166 140 107 306 267 454 438 64 74
153 177 199 230 46 53 109 134 141 181 31 47 79 114 105 150 167 226 379 804
480 1310 29 145 63 388 72 523 l7 94 75 7 c146 12 229 77 240 185 5 52 -22
127 -69 193 -21 30 -24 30 -83 25 -34 -2 -67 -6 -75 -8 -25 -7 -33 53 -36 256
-1 186 -3 206 -28 285 -15 47 -49 171 -76 275 -62 240 -89 324 -161 505 -146
363 -284 623 -505 945 -249 363 -470 610 -806 899 -272 235 -701 501 -1039
646 -354 152 -787 263 -1194 305 -145 15 -521 27 -621 19z m404 -54 c600 -35
1225 -208 1714 -475 518 -283 904 -617 1338 -1157 265 -330 510 -747 632
-1078 85 -230 193 -584 252 -831 22 -93 49 -298 41 -307 -2 -1 -20 7 -40 19
-20 11 -42 19 -49 16 -8 -3 -33 -38 -57 -79 -24 -40 -64 -105 -89 -144 -25
-39 -51 -80 -57 -90 -10 -16 -11 -11 -7 26 4 47 -7 77 -25 66 -6 -3 -20 -35
-32 -71 -37 -110 -107 -150 -234 -133 -37 5 -86 8 -108 6 l-41 -3 79 -40 c303
-152 400 -255 411 -438 6 -96 -9 -162 -62 -266 l-33 -66 -18 40 c-14 29 -20
76 -24 175 -5 124 -8 140 -36 200 -39 81 -138 216 -188 253 -20 16 -83 51
-139 77 -173 82 -286 183 -346 310 -22 47 -26 69 -26 150 0 78 5 108 27 170
15 41 32 102 39 135 6 33 20 78 31 100 37 75 109 135 160 135 38 -1 111 -38
105 -54 -3 -8 1 -22 8 -33 21 -27 19 -30 -21 -38 -47 -8 -78 -29 -92 -61 -28
-61 0 -104 68 -104 38 0 73 20 111 62 16 18 37 28 67 31 23 3 42 1 42 -4 0
-13 -37 -85 -68 -131 -32 -49 -103 -95 -156 -103 -23 -4 -75 -2 -116 4 -63 8
-79 14 -98 38 l-23 28 3 -115 c3 -105 6 -120 33 -174 34 -68 170 -210 193
-201 7 3 24 5 38 5 22 0 18 7 -41 80 -62 77 -86 129 -109 236 l-7 32 73 4
c134 7 232 74 301 205 57 110 70 170 64 293 -4 91 -11 123 -52 240 -26 74 -62
165 -81 201 -39 75 -118 167 -168 198 -56 35 -78 29 -142 -44 -32 -36 -61 -65
-65 -65 -4 0 -10 8 -13 17 -8 20 77 111 111 119 21 6 22 9 16 87 l-6 82 35
-33 c19 -18 50 -37 69 -42 19 -5 46 -20 60 -32 15 -13 48 -38 73 -56 26 -18
55 -46 64 -63 9 -17 43 -74 74 -128 64 -106 92 -174 139 -331 23 -79 29 -115
24 -147 -9 -64 -67 -228 -110 -313 -21 -41 -53 -121 -71 -178 -39 -121 -101
-256 -140 -307 -26 -35 -66 -62 -109 -76 -12 -4 0 -7 31 -8 44 -1 54 3 81 31
41 44 101 139 137 219 16 35 66 143 112 239 45 96 88 195 95 220 16 56 15 55
33 41 8 -7 27 -11 43 -9 26 3 29 8 37 59 8 50 5 70 -28 185 -64 221 -139 411
-251 634 -286 572 -527 913 -916 1297 -363 358 -647 563 -1061 763 -274 132
-381 170 -753 265 -345 88 -827 131 -1200 106 -588 -38 -1162 -184 -1603 -405
-434 -218 -905 -585 -1189 -926 -98 -118 -312 -404 -392 -525 -82 -122 -100
-153 -242 -425 -203 -387 -206 -395 -234 -519 -30 -129 -35 -144 -66 -183 -20
-24 -65 -169 -134 -436 -34 -129 -47 -243 -35 -321 9 -64 55 -173 112 -266
l31 -49 -34 -25 c-19 -14 -81 -71 -138 -128 -114 -113 -141 -125 -188 -81 -36
34 -30 80 27 200 55 114 63 160 90 483 12 154 32 267 67 390 55 193 215 637
281 781 235 515 554 982 942 1378 173 176 278 267 488 416 513 367 1017 578
1667 699 241 45 383 62 565 71 247 10 242 10 429 0z m256 -290 c103 -15 354
-74 485 -113 63 -19 140 -40 170 -46 64 -14 159 -47 285 -100 50 -21 121 -51
158 -66 37 -15 105 -53 150 -83 45 -30 122 -82 170 -114 49 -33 116 -79 150
-105 34 -25 88 -58 119 -74 31 -16 60 -33 63 -40 9 -14 -172 -4 -315 18 -144
22 -333 23 -382 1 -47 -21 -48 -41 -9 -105 16 -27 33 -61 37 -77 l7 -29 -49 7
c-146 20 -244 27 -296 21 l-58 -7 0 35 c0 54 -15 52 -33 -4 -11 -37 -12 -51
-4 -54 7 -1 59 -8 117 -14 58 -6 147 -21 197 -33 104 -24 133 -20 165 22 18
25 18 27 -8 103 -15 42 -25 79 -22 82 3 4 37 11 74 16 83 12 192 4 280 -21 40
-12 118 -22 202 -26 144 -7 180 -16 238 -60 l35 -27 -7 -329 -7 -329 34 -35
c74 -77 210 -184 234 -184 44 0 106 126 103 207 -1 39 -9 55 -49 104 -60 71
-59 71 -107 63 l-40 -6 31 -27 c18 -15 46 -37 62 -48 17 -12 37 -33 44 -47 13
-23 11 -31 -29 -99 l-42 -75 -101 81 -100 80 7 81 c10 134 15 215 21 331 3 61
9 126 14 145 l8 35 173 -175 c181 -184 218 -231 250 -325 61 -176 150 -732
150 -932 0 -86 -2 -93 -20 -93 -55 0 -97 55 -115 152 -12 66 -45 72 -105 21
-41 -34 -60 -73 -60 -125 0 -66 53 -139 81 -111 5 5 -1 38 -16 83 -30 91 -31
107 -5 115 11 3 20 11 20 16 0 22 22 -5 51 -64 60 -121 103 -157 191 -157 56
0 67 -9 75 -56 23 -147 195 -263 445 -299 25 -4 42 -13 50 -28 15 -29 15 -128
-1 -194 l-13 -52 -49 2 c-45 2 -49 4 -49 27 0 14 -13 48 -30 76 -22 39 -40 56
-74 73 -25 11 -52 21 -60 21 -8 0 -26 5 -39 11 -54 24 -159 -67 -217 -187 -27
-55 -43 -117 -81 -314 -6 -30 -9 -93 -6 -139 4 -75 10 -95 49 -170 38 -75 54
-94 131 -159 l88 -74 -35 -24 c-19 -13 -43 -24 -53 -24 -13 0 -14 -3 -6 -8 10
-6 10 -12 -3 -28 -11 -14 -17 -16 -21 -6 -3 8 -19 29 -37 47 -17 18 -44 51
-61 73 -16 22 -40 46 -53 53 -12 7 -21 18 -18 24 2 7 0 18 -6 26 -8 11 -8 9
-4 -5 7 -19 6 -19 -12 -3 -10 9 -33 20 -50 23 -31 6 -32 8 -32 63 0 192 -62
489 -160 776 -86 249 -231 523 -371 698 -48 60 -103 137 -123 171 -46 79 -207
238 -337 334 -134 99 -431 287 -569 360 -117 62 -285 137 -441 197 -220 85
-551 136 -879 136 -203 0 -342 -11 -525 -42 -391 -67 -634 -167 -990 -405
-297 -198 -371 -266 -619 -564 -71 -85 -143 -168 -158 -185 -112 -115 -306
-432 -399 -649 -40 -94 -116 -341 -139 -452 -46 -222 -79 -569 -80 -829 0 -96
33 -353 66 -515 17 -83 58 -211 128 -398 44 -120 131 -289 206 -402 20 -30 53
-86 74 -125 44 -82 79 -126 236 -294 399 -430 527 -537 865 -716 145 -76 267
-126 480 -194 364 -116 665 -146 1055 -105 267 27 687 151 859 253 36 21 110
64 163 95 53 30 147 95 210 144 62 48 153 118 201 156 202 156 454 429 628
681 100 145 240 420 306 600 63 174 131 478 163 725 19 151 31 545 20 660 -20
204 -66 445 -115 601 -81 259 -161 410 -349 659 -231 306 -352 442 -454 512
l-47 32 25 -31 c14 -18 63 -78 109 -135 198 -241 330 -407 372 -468 190 -272
354 -753 390 -1150 13 -139 6 -548 -10 -670 -6 -41 -23 -140 -37 -220 -45
-246 -192 -664 -294 -835 -26 -44 -58 -100 -70 -125 -26 -52 -107 -167 -233
-330 -252 -325 -719 -674 -1132 -845 -404 -168 -829 -229 -1311 -188 -144 13
-168 17 -194 38 -8 7 -55 17 -104 22 -66 8 -103 19 -150 43 -33 18 -117 51
-186 75 -148 51 -365 162 -472 243 -261 196 -591 505 -702 656 -28 39 -97 143
-153 231 -215 341 -350 668 -403 978 -64 380 -46 763 57 1192 42 177 100 335
213 580 121 264 217 407 442 660 174 196 211 233 349 342 221 175 285 217 476
312 262 130 553 226 823 271 558 93 1111 22 1575 -204 180 -88 251 -129 376
-219 52 -38 163 -114 247 -169 184 -121 219 -158 465 -484 185 -246 255 -359
354 -569 118 -249 166 -452 198 -825 37 -427 3 -765 -116 -1160 -101 -335
-214 -565 -452 -920 -69 -102 -395 -458 -527 -574 -92 -81 -350 -270 -435
-320 -285 -164 -757 -320 -1075 -355 -560 -62 -1022 25 -1551 289 -116 59
-270 154 -364 227 -38 30 -169 148 -291 263 -194 184 -230 223 -305 332 -47
67 -101 152 -119 188 -50 97 -80 142 -100 147 -22 6 -165 283 -208 403 -17 47
-49 132 -70 190 -47 122 -114 446 -133 635 -21 210 4 709 45 900 32 151 184
532 315 792 165 327 284 486 586 784 167 165 258 237 370 295 50 26 94 53 98
60 13 22 127 99 202 137 414 207 964 324 1425 303 185 -9 452 -41 601 -72 249
-52 523 -170 746 -321 68 -45 160 -104 205 -129 46 -26 135 -84 198 -129 63
-45 131 -90 150 -100 19 -10 55 -31 80 -48 l45 -30 -25 28 c-14 15 -61 55
-105 88 -44 33 -127 100 -185 147 -58 47 -132 103 -165 124 -33 21 -76 53 -95
72 -93 89 -429 250 -675 322 -94 28 -270 59 -438 76 -132 14 -139 16 -175 47
-56 49 -73 75 -93 141 -22 68 -24 194 -6 245 19 51 73 120 115 148 53 35 134
55 229 58 102 3 136 -12 164 -70 19 -39 20 -50 10 -83 -14 -47 -50 -78 -100
-85 -96 -14 -167 -36 -187 -59 -26 -29 -34 -24 -34 20 0 44 39 88 98 110 68
25 76 37 20 31 -56 -5 -139 -55 -156 -92 -30 -64 -7 -125 66 -179 58 -42 123
-60 284 -76 124 -13 222 -4 278 25 49 26 107 104 167 225 32 65 61 119 64 119
5 1 94 -191 119 -259 26 -70 62 -90 81 -46 9 19 7 42 -5 98 -16 69 -21 78
-100 165 -102 113 -110 138 -58 195 51 57 67 57 163 3 46 -26 98 -57 114 -70
17 -12 52 -34 78 -50 44 -25 50 -26 64 -12 14 13 12 17 -13 40 -16 13 -52 44
-79 68 -143 126 -216 169 -281 169 -31 0 -45 -8 -87 -50 -27 -27 -56 -50 -64
-50 -10 0 -11 -5 -3 -19 37 -70 -40 -325 -131 -435 -37 -44 -98 -75 -149 -76
-43 0 -271 29 -322 41 -36 9 -98 58 -98 78 0 12 83 37 159 47 137 17 196 175
97 262 -46 41 -119 56 -223 48 -174 -13 -277 -88 -323 -235 -45 -142 -18 -297
67 -378 l43 -43 -112 0 c-129 0 -193 21 -204 67 -16 63 13 175 70 268 17 28
47 81 66 119 51 102 164 215 261 261 138 65 258 78 415 46 99 -20 167 -47 227
-88 56 -39 55 -22 -3 30 -164 148 -443 166 -707 47 -99 -45 -136 -92 -254
-327 l-103 -207 -6 -105 -5 -106 -47 -3 c-43 -3 -48 -1 -48 19 l0 21 -17 -21
c-15 -18 -45 -26 -178 -47 -239 -37 -435 -81 -564 -126 -297 -104 -579 -256
-768 -416 -64 -53 -153 -125 -199 -159 -47 -35 -97 -81 -112 -102 -15 -22 -44
-48 -65 -57 -55 -25 -146 -129 -234 -269 -42 -66 -103 -160 -136 -210 -138
-210 -387 -794 -441 -1036 -14 -64 -26 -126 -26 -138 0 -15 -11 -25 -38 -36
-42 -18 -121 -92 -193 -181 -49 -61 -49 -62 -54 -150 l-6 -89 50 -27 c47 -26
156 -143 188 -202 7 -13 19 -79 27 -148 9 -69 36 -226 61 -349 38 -187 52
-238 89 -318 24 -53 52 -121 62 -151 24 -76 161 -336 199 -380 17 -19 49 -64
70 -100 130 -215 270 -389 431 -536 55 -49 140 -130 189 -181 94 -96 194 -171
380 -288 150 -94 332 -178 554 -256 68 -24 324 -85 461 -110 155 -29 444 -36
637 -15 174 19 486 76 583 107 67 21 294 125 461 210 442 226 934 704 1280
1244 25 39 78 138 118 220 64 133 83 188 168 480 91 317 95 335 100 453 4 94
9 122 19 122 20 0 89 65 142 134 29 37 48 55 50 46 1 -9 16 -21 32 -29 17 -7
30 -20 30 -28 0 -9 -19 -46 -42 -82 -53 -84 -106 -200 -119 -262 -9 -40 -7
-60 14 -136 28 -99 77 -212 113 -260 32 -42 82 -59 130 -43 29 10 159 126 296
266 15 15 47 -30 74 -102 35 -96 31 -150 -26 -343 -58 -200 -127 -331 -220
-415 -56 -50 -154 -96 -206 -96 -49 0 -104 17 -105 33 -4 48 26 185 58 259 20
48 69 71 89 43 8 -10 14 -31 14 -46 0 -41 17 -79 35 -79 9 0 14 -4 10 -9 -8
-14 8 -21 24 -12 9 6 14 38 16 101 3 83 6 97 32 133 32 45 92 84 114 74 8 -4
22 -12 31 -19 31 -23 33 3 4 55 -16 29 -34 61 -40 73 -14 29 -78 64 -105 57
-11 -3 -21 -7 -21 -9 0 -2 20 -24 45 -50 25 -25 45 -49 45 -53 0 -4 -20 -21
-45 -39 -37 -26 -95 -99 -108 -136 -2 -6 -14 -2 -27 7 -14 9 -38 17 -54 17
-41 0 -111 -74 -126 -132 -6 -24 -18 -65 -27 -93 -12 -36 -17 -94 -19 -210 -2
-141 -5 -174 -32 -280 -36 -138 -97 -322 -171 -512 -28 -73 -51 -140 -51 -148
0 -15 -59 -80 -294 -320 l-88 -90 6 135 c3 74 9 211 12 303 l7 168 46 31 c64
43 101 79 101 98 0 25 -29 60 -50 60 -11 0 -46 -31 -83 -74 -61 -69 -65 -77
-60 -113 9 -67 -33 -610 -49 -630 -6 -7 -50 -11 -131 -10 -67 0 -201 -5 -297
-12 -96 -6 -287 -11 -425 -9 -272 2 -338 -4 -333 -30 3 -15 27 -18 168 -26 91
-5 206 -9 255 -9 119 0 439 21 490 33 22 5 78 10 123 10 101 0 103 -10 14 -59
-34 -19 -62 -40 -62 -47 0 -18 -66 -65 -123 -86 -32 -12 -88 -21 -151 -25
l-101 -5 -96 51 c-123 64 -182 79 -245 57 -65 -22 -136 -78 -190 -149 -25 -34
-51 -62 -57 -62 -6 0 -49 50 -97 110 -92 118 -113 133 -220 161 -134 34 -268
1 -359 -88 -64 -64 -81 -104 -81 -193 0 -74 0 -75 -26 -75 -17 0 -24 -4 -20
-12 2 -7 10 -31 17 -53 8 -22 19 -46 26 -53 18 -18 16 -36 -6 -63 -16 -20 -23
-22 -47 -14 -16 6 -34 21 -41 35 -135 273 -174 365 -203 478 -6 23 -16 42 -21
42 -13 0 -4 -75 18 -160 15 -60 175 -403 201 -434 32 -36 102 -58 182 -58 78
1 185 28 228 57 48 34 77 125 61 195 -26 116 -123 174 -256 152 -39 -7 -53 -6
-57 3 -8 21 33 92 72 126 63 55 116 73 218 74 84 0 94 -2 139 -30 63 -39 194
-187 247 -279 50 -87 110 -152 163 -177 35 -16 37 -19 15 -20 -14 0 -40 0 -58
1 -18 1 -64 -4 -101 -10 -62 -10 -69 -14 -82 -43 -37 -84 -365 -182 -519 -155
-30 5 -257 13 -505 18 -490 10 -667 18 -644 30 8 4 41 11 74 14 74 9 173 55
203 96 26 34 24 35 -22 16 -45 -19 -56 -9 -37 34 16 34 17 35 63 30 26 -3 49
-8 51 -10 2 -3 1 -27 -2 -55 -7 -51 4 -105 20 -105 5 0 9 7 9 16 0 12 8 9 33
-10 40 -31 67 -36 46 -9 -12 14 -12 15 0 9 8 -5 17 -3 22 5 14 22 11 26 -18
34 -43 10 -53 24 -53 69 0 32 11 59 46 116 105 170 116 207 107 353 -5 93 -8
107 -23 107 -16 0 -18 -14 -22 -118 -3 -108 -6 -122 -38 -191 l-34 -74 -8 37
c-17 81 -75 148 -194 226 -90 59 -125 70 -220 70 -155 0 -226 -32 -355 -160
-101 -101 -127 -179 -94 -281 22 -67 92 -139 154 -159 24 -8 39 -16 34 -17 -5
-2 -65 17 -133 42 -118 44 -200 68 -285 81 l-40 7 61 18 c53 16 68 27 104 72
23 28 56 75 73 104 18 28 62 86 99 129 81 91 91 125 60 190 -37 75 -48 78
-240 68 -255 -13 -397 -7 -571 21 -86 14 -189 28 -231 31 -41 3 -91 9 -110 14
-19 5 -97 14 -172 21 l-138 12 0 76 c0 118 0 117 83 124 40 4 92 9 117 13 l45
6 35 -72 c44 -92 62 -105 117 -86 57 20 121 64 129 88 18 57 -52 99 -176 107
l-84 6 -8 40 c-17 86 -17 85 -49 85 l-31 0 4 -67 3 -67 -40 -7 c-22 -3 -63 -9
-91 -12 l-51 -6 -7 52 c-3 29 -6 93 -6 142 0 50 -3 126 -6 171 -7 80 -7 81
-39 93 -17 6 -59 36 -93 67 -57 51 -82 61 -82 30 0 -15 51 -70 103 -111 33
-27 39 -38 51 -105 8 -41 18 -175 22 -297 l7 -222 -59 52 c-100 88 -136 129
-160 181 -26 56 -29 84 -14 134 8 29 7 32 -5 22 -11 -9 -19 -7 -39 13 -21 22
-27 23 -43 12 -17 -13 -17 -15 1 -52 18 -37 56 -140 56 -152 0 -13 -156 149
-195 204 -118 165 -171 293 -244 601 -38 157 -38 164 -28 254 9 81 8 99 -8
142 -13 37 -16 63 -11 101 11 81 7 169 -10 195 -8 12 -19 20 -23 17 -5 -3 -12
-42 -16 -87 -4 -47 -15 -97 -25 -116 -14 -25 -16 -41 -9 -64 12 -42 38 -70 61
-62 14 4 18 0 18 -22 l0 -27 -82 7 c-122 10 -171 49 -252 201 -45 83 -120 365
-138 517 -16 137 12 347 46 335 43 -16 60 -19 49 -7 -16 18 31 67 76 80 56 16
118 13 125 -6 9 -23 7 -79 -3 -106 -9 -24 -103 -83 -114 -72 -3 3 -1 17 4 31
11 30 12 28 -23 37 -25 6 -27 4 -33 -38 -8 -50 18 -111 57 -135 70 -44 123
-62 183 -64 56 -2 68 1 106 28 57 41 76 69 95 145 30 119 -1 235 -108 400 -31
47 -65 104 -77 127 -11 23 -46 69 -77 102 l-56 61 75 72 c61 60 83 90 120 168
61 124 83 192 98 291 15 104 7 218 -21 292 -23 61 -27 65 -75 70 -17 2 -50 18
-74 35 -51 37 -82 40 -133 13 -19 -11 -38 -18 -40 -16 -3 3 -17 -9 -33 -25
-27 -28 -28 -32 -13 -47 22 -22 45 -11 53 26 6 27 11 31 38 31 100 0 137 -38
137 -139 0 -121 -38 -231 -90 -266 -18 -12 -51 -56 -80 -105 -26 -47 -68 -115
-91 -152 -24 -36 -52 -80 -61 -97 l-17 -31 -45 48 c-39 42 -46 55 -47 93 -2
58 12 279 18 279 2 0 16 -13 30 -30 22 -27 31 -30 79 -30 30 0 54 3 54 8 -1
17 -17 30 -49 37 -25 5 -63 37 -149 124 -174 175 -186 215 -137 453 29 141 68
228 175 390 96 147 149 192 284 243 91 34 121 33 141 -5 18 -35 32 -120 19
-120 -5 1 -20 7 -34 15 -33 19 -102 19 -148 -1 -99 -41 -182 -182 -237 -403
-13 -53 -26 -123 -30 -156 -3 -33 -8 -79 -11 -102 -5 -38 -3 -43 15 -43 23 0
26 10 36 102 l6 57 47 3 c39 2 47 6 47 23 0 17 -6 19 -42 17 -28 -2 -43 1 -43
8 0 26 61 193 96 262 50 101 101 165 149 188 103 50 165 3 165 -124 0 -43 -8
-69 -38 -127 -44 -86 -106 -140 -192 -166 -69 -21 -80 -30 -57 -48 44 -32 174
34 248 127 23 29 55 81 72 116 26 56 29 71 24 128 -3 47 -1 64 8 64 21 0 135
-61 135 -72 0 -7 -22 -9 -64 -6 -57 5 -64 4 -58 -11 16 -43 83 -53 187 -26
115 30 170 84 186 185 11 73 6 95 -27 117 -23 15 -50 10 -28 -5 18 -13 16 -80
-4 -124 -21 -47 -79 -104 -116 -114 -36 -9 -143 56 -136 82 5 19 5 88 0 344
-4 219 41 421 123 558 77 128 88 135 219 149 l57 5 3 -33 c2 -25 9 -34 31 -42
37 -12 48 -1 54 56 5 39 2 49 -20 71 -23 23 -34 26 -97 26 -68 0 -70 1 -60 21
16 28 157 181 221 238 l54 48 3 -221 c3 -166 8 -232 19 -266 31 -88 25 -118
-41 -206 -33 -43 -61 -81 -62 -83 -2 -2 -17 2 -34 9 -34 14 -170 155 -170 176
0 17 -12 18 -28 2 -35 -35 7 -114 99 -184 51 -39 138 -89 143 -82 1 2 14 23
28 48 14 25 53 74 85 110 86 93 90 104 56 136 -25 23 -27 32 -37 150 -5 68 -7
127 -4 130 10 9 251 25 339 22 l84 -3 13 -65 c10 -49 19 -70 40 -87 15 -12 30
-18 34 -15 3 4 8 46 10 93 3 79 6 90 39 140 36 54 37 55 79 51 36 -4 41 -2 38
14 -3 15 -14 19 -63 20 -77 3 -119 -10 -135 -41 -16 -31 -23 -22 -45 55 -30
104 -61 144 -92 118 -11 -9 -13 -25 -9 -62 3 -28 7 -78 8 -111 l2 -60 -125 -6
c-68 -4 -147 -10 -175 -14 l-51 -7 -6 138 c-4 113 -2 143 10 162 16 25 190
143 257 173 33 15 66 19 177 19 96 0 149 5 180 15 23 9 89 18 145 22 100 6
103 5 128 -20 30 -30 43 -74 29 -96 -12 -18 -20 -18 -217 -3 -78 5 -160 6
-210 0 -44 -5 -119 -12 -167 -17 -64 -6 -98 -15 -136 -36 -58 -31 -97 -69
-107 -102 -7 -21 -3 -20 56 13 96 55 130 64 298 79 122 11 190 12 319 4 192
-12 187 -15 203 83 18 112 -9 158 -94 158 -30 0 -48 4 -48 12 0 22 79 86 166
133 49 27 106 59 126 72 21 13 42 23 48 23 6 0 24 -16 41 -35 17 -19 48 -44
68 -56 57 -32 47 -63 -49 -155 -42 -40 -85 -89 -96 -109 -10 -19 -24 -35 -31
-35 -7 0 -13 -6 -13 -14 0 -8 -19 -49 -41 -92 -32 -60 -41 -89 -41 -126 0 -91
40 -106 184 -66 l79 21 92 -26 c51 -15 119 -30 151 -33 l59 -7 -7 28 c-4 16
-18 42 -32 58 -21 25 -33 67 -19 67 3 0 31 -13 63 -29 93 -47 185 -71 271 -71
186 1 347 77 409 194 24 45 27 62 27 146 0 69 -6 114 -21 165 -12 39 -25 82
-28 98 l-6 27 88 0 c49 0 114 -5 146 -11 32 -6 60 -8 63 -6 2 3 -21 17 -52 32
-73 36 -192 44 -326 22 -52 -9 -139 -21 -194 -27 -130 -14 -162 -25 -207 -68
-44 -42 -62 -89 -53 -135 15 -69 41 -75 44 -10 2 53 23 97 63 126 20 15 52 22
130 28 95 9 163 20 201 35 21 8 71 -68 93 -142 36 -125 16 -240 -57 -312 -42
-42 -68 -55 -150 -76 -123 -30 -274 -15 -402 42 -63 28 -157 124 -193 199 -26
52 -29 70 -32 176 -2 66 -1 130 2 143 9 33 79 109 115 124 57 23 61 12 30 -67
-39 -96 -51 -165 -44 -238 14 -129 76 -210 214 -278 80 -40 89 -42 170 -41
124 1 218 47 267 129 33 57 31 99 -5 136 -69 68 -174 1 -159 -101 5 -41 30
-29 44 21 17 58 35 75 63 59 61 -32 42 -99 -45 -157 -56 -37 -60 -38 -148 -38
-119 0 -155 14 -227 87 -89 90 -112 135 -117 229 -7 116 1 141 61 200 64 64
107 83 217 99 120 17 234 11 288 -17 51 -27 59 -9 12 30 -51 43 -93 52 -245
51 -279 -1 -422 -54 -511 -189 l-37 -55 -17 38 c-10 21 -32 55 -50 75 -26 30
-39 37 -69 38 -45 1 -39 3 129 58 245 80 518 129 1015 185 69 7 537 -3 610
-14z m-1930 -296 c-59 -51 -181 -130 -257 -166 -82 -38 -88 -55 -18 -50 10 1
15 -9 16 -32 l0 -32 -180 -2 -180 -2 42 31 c88 65 347 188 592 282 27 10 25 7
-15 -29z m326 -355 c12 -34 46 -99 76 -146 47 -76 53 -91 53 -139 0 -30 -2
-54 -6 -54 -3 0 -36 13 -75 30 -100 43 -125 45 -214 21 -43 -12 -79 -20 -81
-18 -8 8 24 97 45 126 12 16 28 48 35 70 13 36 48 91 101 163 26 33 36 25 66
-53z m4199 -944 c115 -145 234 -319 257 -373 13 -32 13 -36 -1 -44 -9 -5 -16
-21 -16 -36 0 -15 -7 -38 -15 -52 -8 -14 -19 -35 -24 -47 -6 -12 -22 -39 -35
-60 -14 -21 -35 -65 -46 -97 -22 -65 -63 -126 -84 -126 -20 0 -26 23 -26 102
0 58 3 69 15 64 13 -5 14 -2 1 22 -9 18 -15 81 -19 192 -6 186 -28 316 -81
485 -19 58 -33 105 -31 103 1 -2 49 -61 105 -133z m-6193 -77 c-23 -84 -27
-235 -13 -483 8 -136 7 -152 -8 -168 -20 -20 -42 -22 -52 -6 -3 6 -10 41 -14
78 -4 37 -14 81 -21 97 -17 34 -33 35 -129 6 -134 -39 -131 -41 -63 31 40 43
77 98 113 168 66 130 192 349 201 349 4 0 -2 -33 -14 -72z m6499 -423 c-4 -21
-13 -35 -21 -35 -19 0 -19 2 2 45 20 42 28 38 19 -10z m21 -335 c57 -42 119
-127 153 -207 28 -69 58 -208 47 -219 -8 -9 -139 32 -212 66 -94 43 -143 84
-171 143 -34 74 -32 100 10 120 19 9 53 41 76 72 22 30 44 55 48 55 5 0 26
-13 49 -30z m-7327 -661 c10 -23 11 -63 4 -167 -16 -259 -6 -318 72 -422 37
-48 219 -210 238 -210 7 0 193 279 255 383 74 122 119 238 134 343 l12 89 29
-94 c26 -85 28 -102 23 -195 -6 -112 -29 -192 -83 -296 -58 -111 -113 -171
-192 -213 -39 -21 -74 -42 -77 -47 -3 -5 27 -42 68 -82 102 -101 155 -220 157
-353 0 -33 2 -37 11 -22 6 10 13 43 16 73 4 33 10 53 17 51 6 -2 31 -44 56
-93 44 -87 45 -91 45 -185 0 -89 -2 -98 -29 -137 -16 -23 -49 -55 -75 -72 -25
-16 -51 -34 -58 -40 -14 -12 -33 -13 -33 -2 0 4 -19 13 -42 20 -60 19 -110 51
-106 69 2 9 22 23 45 32 47 18 88 53 109 93 20 39 19 167 -3 197 -9 13 -27 44
-40 69 -37 69 -106 162 -163 217 -48 47 -54 50 -104 50 -42 0 -60 -5 -90 -29
-73 -55 -88 -108 -66 -226 6 -29 9 -55 7 -57 -2 -1 -20 39 -40 91 -46 120 -54
179 -30 226 17 33 21 35 68 35 101 1 94 24 -26 86 -129 67 -207 169 -245 319
-21 82 -14 185 21 304 27 92 83 226 95 226 4 0 13 -14 20 -31z m7374 -114
c-14 -19 -33 -35 -40 -35 -20 0 -17 40 4 46 9 3 24 9 32 14 29 17 31 10 4 -25z
m-7230 -266 c4 -85 9 -172 12 -194 l5 -40 -25 30 c-35 42 -58 92 -63 140 -4
37 30 235 44 259 12 19 21 -41 27 -195z m7955 -194 c5 -19 13 -29 23 -27 19 3
48 -106 31 -116 -6 -4 -18 -24 -27 -45 -8 -21 -44 -68 -78 -104 -68 -71 -211
-183 -234 -183 -8 0 -38 19 -67 43 -30 23 -67 51 -83 63 l-29 21 61 31 c91 46
195 141 233 212 18 33 42 72 55 87 13 16 36 50 51 77 l29 49 14 -39 c8 -21 17
-52 21 -69z m-7124 -17 c-18 -137 -26 -221 -31 -335 l-7 -133 -23 33 c-13 17
-50 57 -83 87 -49 45 -60 62 -65 96 -6 40 -3 44 62 119 37 43 83 98 102 121
19 24 38 43 42 44 4 0 5 -15 3 -32z m7367 -175 c41 -48 50 -158 18 -210 -31
-51 -91 -76 -185 -77 -87 -1 -222 12 -244 24 -9 5 12 27 70 73 46 36 107 89
134 117 78 81 171 114 207 73z m-1428 -124 l27 -51 -36 -55 c-37 -56 -59 -73
-76 -56 -10 10 6 206 17 225 10 16 43 -13 68 -63z m-6899 13 c-16 -10 -56 -34
-89 -53 -82 -48 -153 -113 -166 -155 -15 -45 -23 -39 -10 7 20 73 204 219 275
219 16 0 15 -4 -10 -18z m7261 -108 c-3 -8 -35 -57 -71 -109 -89 -127 -117
-192 -123 -281 -4 -60 -1 -80 17 -117 38 -79 62 -97 126 -97 56 0 115 21 115
41 0 7 -9 9 -22 5 -54 -15 -70 -15 -30 0 31 11 41 19 33 27 -7 7 -27 7 -66 -2
-30 -7 -59 -10 -65 -6 -6 3 -19 24 -30 45 -38 75 -18 206 50 325 36 61 140
175 160 175 30 -1 100 -40 144 -80 56 -52 140 -212 155 -296 11 -66 20 -164
14 -164 -2 0 -29 25 -60 56 l-57 56 22 89 c19 72 21 92 11 111 l-12 22 -27
-33 c-31 -37 -70 -130 -70 -167 0 -13 -3 -24 -6 -24 -3 0 -26 18 -51 40 -30
26 -55 40 -74 40 -34 0 -47 -16 -19 -25 29 -9 120 -83 120 -98 0 -19 -113
-183 -141 -206 -14 -11 -51 -31 -82 -45 -47 -20 -57 -30 -65 -58 -4 -18 -15
-34 -23 -36 -21 -4 -103 61 -129 102 -11 19 -25 57 -30 83 -5 26 -16 76 -25
111 -18 70 -11 111 30 192 46 91 144 226 203 283 59 56 90 72 78 41z m-7321
-61 c-40 -79 -80 -211 -101 -335 -14 -80 -13 -95 6 -228 28 -189 70 -347 131
-494 28 -66 75 -177 104 -246 126 -304 247 -503 550 -910 100 -135 301 -356
476 -525 84 -81 416 -353 603 -493 38 -29 123 -79 189 -113 66 -34 141 -74
167 -89 70 -41 295 -145 444 -205 119 -47 306 -105 459 -141 132 -32 473 -83
620 -95 173 -13 608 -6 712 11 33 5 126 19 207 30 178 24 277 44 383 76 44 13
112 30 150 38 156 33 492 159 700 264 100 49 255 150 482 311 122 87 403 322
527 441 206 199 501 532 628 710 52 73 177 294 219 385 148 326 305 923 316
1201 6 147 -7 251 -39 301 l-20 33 99 0 98 0 -3 -57 c-5 -104 -33 -376 -48
-463 -64 -370 -214 -854 -349 -1127 -148 -297 -355 -565 -755 -977 -318 -327
-831 -726 -1120 -871 -155 -78 -347 -154 -580 -230 -331 -108 -573 -158 -910
-191 -212 -20 -680 -14 -850 10 -58 8 -139 20 -180 26 -267 37 -639 142 -905
255 -191 81 -485 234 -615 319 -147 97 -457 328 -568 422 -316 272 -750 782
-957 1125 -201 334 -404 806 -475 1106 -45 191 -43 370 5 538 32 110 57 158
98 189 30 23 113 65 129 66 4 0 -8 -30 -27 -67z m364 42 c67 -34 201 -218 201
-275 0 -13 -20 -22 -82 -37 -46 -12 -114 -35 -151 -53 -82 -37 -94 -58 -103
-182 -9 -114 8 -232 84 -589 11 -48 37 -124 61 -172 48 -100 93 -142 216 -203
64 -32 81 -36 125 -32 l51 5 -7 -46 c-8 -60 -32 -101 -72 -124 -43 -26 -76
-16 -110 32 -21 31 -42 45 -97 67 -60 23 -82 39 -159 118 -83 84 -91 96 -113
166 -39 121 -63 347 -59 540 3 140 8 180 31 265 20 75 29 139 35 257 9 162 13
177 62 241 33 41 45 44 87 22z m-280 -210 c36 -123 38 -136 50 -220 9 -59 7
-74 -11 -119 -35 -87 -35 -201 1 -418 34 -205 36 -227 22 -213 -12 12 -109
243 -140 333 -19 57 -42 207 -58 382 -8 96 12 200 60 309 32 73 43 90 45 71 2
-14 16 -70 31 -125z m7560 -291 c58 -31 179 -162 192 -206 7 -27 -1 -66 -51
-233 -69 -229 -74 -243 -153 -385 -132 -236 -214 -313 -405 -379 -74 -25 -144
-27 -166 -5 -12 11 -16 35 -16 88 l0 73 94 -5 c90 -4 98 -3 160 26 131 62 212
176 301 426 58 164 79 269 70 350 -7 74 -44 158 -87 202 -22 24 -28 38 -23 53
8 28 27 26 84 -5z m-252 -1201 c-109 -195 -161 -267 -363 -504 -84 -99 -92
-105 -103 -87 -10 16 -15 17 -27 8 -8 -7 -14 -24 -14 -39 0 -19 -17 -43 -61
-86 -34 -33 -60 -55 -58 -50 2 6 20 42 40 80 57 108 128 315 166 480 42 186
43 187 55 153 10 -29 51 -48 103 -48 44 0 118 25 195 65 74 38 73 37 67 28z
m-6651 -148 c18 -70 76 -227 111 -303 37 -79 25 -99 -19 -32 -20 30 -76 105
-124 165 -48 61 -100 138 -116 172 -15 35 -28 64 -28 66 0 2 22 3 49 3 36 -1
57 5 78 20 l28 21 3 -26 c2 -14 10 -53 18 -86z m1264 -835 c0 -13 -44 -73 -62
-84 -13 -8 -22 -6 -38 9 -18 17 -50 66 -50 77 0 7 150 5 150 -2z m-280 -266
c63 -10 118 -21 121 -27 9 -13 21 -108 15 -115 -3 -3 -37 16 -76 42 -38 26
-101 59 -139 73 -39 14 -72 32 -76 40 -4 12 0 14 17 9 13 -3 75 -13 138 -22z
m440 -51 c69 -14 145 -29 170 -34 63 -11 257 -11 305 1 22 5 99 12 170 16 141
6 169 -1 191 -45 16 -32 6 -56 -56 -138 -80 -106 -76 -105 -170 -24 -109 94
-133 100 -346 76 -118 -13 -167 -22 -192 -37 l-32 -20 -84 36 c-47 21 -100 36
-122 36 -21 0 -44 4 -50 8 -6 4 -14 42 -17 86 l-6 79 57 -7 c31 -4 113 -18
182 -33z m1362 -171 c116 -58 183 -125 214 -215 17 -52 15 -76 -15 -123 l-19
-31 -59 9 c-46 7 -65 16 -95 45 -22 22 -34 41 -31 51 8 20 -17 11 -31 -12 -9
-14 -5 -23 22 -47 37 -33 36 -49 -3 -75 -38 -25 -159 -23 -194 4 -23 17 -26
27 -29 84 -3 62 -1 67 27 91 65 54 183 68 234 27 18 -15 19 -20 9 -33 -11 -13
-6 -21 35 -52 l48 -36 14 31 c14 29 14 35 -4 67 -11 20 -37 50 -58 67 -35 28
-45 31 -110 31 -40 -1 -97 -8 -128 -18 -50 -15 -61 -23 -92 -69 -56 -84 -57
-153 -4 -200 37 -32 100 -58 145 -58 29 0 42 -4 42 -14 0 -13 -28 -20 -165
-42 -49 -7 -199 41 -252 82 -70 53 -96 171 -54 252 23 46 110 129 174 166 78
46 122 56 224 52 80 -3 102 -8 155 -34z m2068 -18 c84 -32 106 -37 186 -38
l91 -1 -119 -81 c-145 -100 -187 -118 -311 -138 -124 -20 -135 -20 -202 5 -40
15 -60 29 -70 50 -20 37 -8 63 66 143 106 116 185 129 359 60z m-3460 -25 c71
-12 206 -11 295 2 160 23 189 23 232 1 51 -27 133 -117 133 -147 0 -35 -60
-82 -115 -91 -67 -10 -177 4 -269 33 -126 40 -316 137 -362 184 l-39 42 35 -7
c19 -4 60 -11 90 -17z m2466 -145 c64 -36 96 -139 59 -191 -36 -52 -186 -91
-269 -70 -52 13 -69 31 -38 41 52 17 80 79 47 106 -21 18 -18 73 6 104 39 50
119 54 195 10z m-1459 -340 c-3 -3 -12 -4 -19 -1 -8 3 -5 6 6 6 11 1 17 -2 13
-5z m40 -10 c-3 -3 -12 -4 -19 -1 -8 3 -5 6 6 6 11 1 17 -2 13 -5z m46 -11
c-7 -2 -19 -2 -25 0 -7 3 -2 5 12 5 14 0 19 -2 13 -5z m80 -10 c-13 -2 -33 -2
-45 0 -13 2 -3 4 22 4 25 0 35 -2 23 -4z"/>
<path d="M9046 5528 l-26 -33 31 -3 c39 -4 53 9 45 42 -8 34 -19 33 -50 -6z"/>
<path d="M6101 8886 c-10 -12 1 -19 69 -40 91 -29 142 -33 159 -12 17 21 -30
43 -116 56 -90 13 -98 12 -112 -4z"/>
<path d="M7271 8063 c-10 -43 -41 -259 -41 -283 0 -13 34 -13 142 1 71 9 88
15 88 28 0 9 6 23 13 30 10 11 8 13 -13 8 -14 -3 -53 -9 -87 -13 l-63 -7 6 94
c4 52 7 95 8 96 1 1 24 -26 52 -60 58 -71 108 -106 118 -82 3 8 -11 35 -33 62
-53 67 -157 173 -169 173 -5 0 -15 -21 -21 -47z"/>
<path d="M3325 7910 c-16 -7 -11 -9 20 -9 22 0 47 4 55 9 19 13 -46 13 -75 0z"/>
<path d="M7761 7837 c-8 -10 -7 -28 5 -68 9 -30 19 -58 23 -62 4 -4 48 5 97
21 70 23 90 33 92 49 3 19 -3 21 -62 25 -47 3 -74 10 -95 26 -35 26 -44 27
-60 9z"/>
<path d="M2463 7650 c-13 -5 -23 -12 -23 -15 0 -9 16 -5 36 10 22 16 19 18
-13 5z"/>
<path d="M5060 7084 c-14 -2 -56 -9 -95 -15 -194 -30 -405 -98 -646 -209 -251
-115 -341 -174 -516 -340 -132 -125 -165 -162 -237 -270 -172 -258 -244 -396
-327 -625 -92 -251 -94 -264 -94 -625 0 -361 5 -395 95 -670 69 -208 142 -348
258 -493 120 -149 425 -442 547 -524 155 -104 452 -226 676 -277 128 -29 348
-49 474 -42 398 22 703 121 1062 348 298 187 560 482 737 828 93 183 118 251
171 480 62 268 69 321 69 540 -1 193 -1 196 -42 370 -50 210 -68 267 -116 385
-68 164 -134 278 -223 390 -107 135 -179 207 -308 310 -193 153 -347 245 -550
328 -134 55 -195 71 -350 92 -112 16 -526 29 -585 19z m410 -64 c338 -24 576
-107 880 -308 135 -89 345 -292 454 -437 98 -131 251 -459 296 -635 64 -253
67 -727 6 -995 -21 -91 -64 -223 -82 -255 l-15 -25 6 25 c3 14 23 93 44 175
57 222 75 359 75 575 1 315 -29 466 -150 752 -133 311 -287 512 -548 716 -244
190 -515 325 -741 371 -179 35 -543 39 -750 6 -381 -60 -734 -221 -1037 -474
-123 -103 -192 -179 -285 -316 -41 -60 -96 -141 -123 -180 -102 -145 -215
-458 -260 -723 -30 -174 -25 -537 11 -722 14 -69 82 -282 115 -356 32 -72 82
-145 181 -265 44 -53 89 -111 101 -131 12 -19 72 -80 134 -135 224 -201 254
-221 528 -359 296 -150 401 -187 580 -209 158 -19 270 -19 440 0 199 23 299
42 428 81 173 53 234 82 409 196 167 110 249 176 401 322 50 49 92 86 92 83 0
-24 -279 -294 -380 -368 -73 -54 -338 -197 -442 -238 -163 -66 -435 -120 -683
-136 -115 -8 -410 24 -473 51 -20 9 -100 36 -177 61 -211 68 -475 210 -640
342 -116 94 -304 276 -358 346 -96 127 -182 322 -251 568 -57 205 -59 221 -60
522 -1 308 8 387 75 626 48 174 107 291 285 561 119 180 206 274 395 424 250
200 427 297 692 380 267 84 493 107 827 84z m247 -184 c374 -79 675 -268 924
-579 195 -243 295 -492 344 -857 17 -125 19 -412 4 -513 -37 -246 -124 -539
-202 -677 -27 -48 -107 -159 -107 -149 -5 181 -23 254 -83 337 -48 67 -106 99
-219 122 -109 23 -250 84 -288 125 -42 45 -78 58 -180 63 -141 7 -229 -10
-332 -62 -101 -50 -114 -41 -44 29 29 28 78 60 142 90 55 26 113 61 131 77 29
28 38 31 88 29 49 -1 55 1 55 18 0 15 -11 23 -42 32 -58 16 -146 -7 -237 -61
-92 -55 -128 -93 -181 -192 -24 -46 -87 -141 -140 -213 -53 -71 -111 -151
-128 -177 -18 -26 -53 -70 -80 -98 l-47 -52 -67 104 -68 104 10 55 c5 30 14
70 20 89 24 80 0 219 -58 339 -48 100 -164 200 -251 217 -30 6 -32 4 -55 -47
-56 -129 -67 -289 -27 -392 42 -106 180 -257 256 -278 22 -6 45 -13 51 -14 21
-6 133 -186 139 -223 5 -36 10 -51 42 -137 26 -69 39 -224 24 -289 -7 -31 -18
-56 -24 -56 -7 0 -47 17 -91 38 l-78 38 -2 42 c-6 116 -166 197 -341 173 -204
-29 -255 -54 -240 -120 11 -51 55 -77 185 -109 124 -30 208 -37 294 -22 l73
12 64 -32 c35 -17 77 -42 93 -55 l29 -23 -27 -46 c-15 -25 -30 -46 -34 -46 -4
0 -29 7 -57 15 -59 18 -82 14 -124 -21 -35 -30 -40 -59 -11 -67 11 -3 20 -10
20 -16 0 -34 -244 -25 -370 14 -90 28 -320 150 -406 215 -86 65 -225 202 -281
277 -29 39 -78 93 -109 120 -30 26 -75 80 -99 118 -92 147 -208 465 -170 465
7 0 47 -16 91 -36 71 -33 84 -36 145 -32 42 3 78 12 97 24 16 10 58 38 93 60
35 23 77 52 93 65 33 27 73 106 82 165 l6 42 81 -2 c67 -1 99 5 171 29 86 29
88 29 102 10 18 -24 37 -93 31 -110 -3 -7 -35 -14 -80 -18 -138 -12 -282 -83
-348 -171 -27 -36 -30 -47 -26 -94 4 -59 32 -105 66 -110 35 -5 205 56 269 97
32 21 75 55 95 75 66 65 71 84 74 256 2 85 4 187 5 225 1 39 0 81 -2 95 -5 24
-3 25 49 28 73 4 187 -22 292 -68 190 -82 284 -175 399 -395 23 -44 43 -81 45
-83 2 -2 13 1 24 7 26 14 57 112 72 229 17 134 13 647 -6 728 -20 88 -74 202
-134 283 -31 41 -69 115 -104 198 l-54 131 34 -16 c41 -19 81 -8 101 28 16 30
10 185 -10 245 -20 62 -90 126 -179 163 -87 36 -201 58 -252 48 -30 -6 -36
-11 -41 -39 -3 -18 -2 -54 2 -79 l9 -45 -83 -6 c-96 -6 -207 -49 -219 -86 -9
-30 19 -72 74 -109 93 -63 209 -68 324 -15 l67 32 15 -22 c8 -12 38 -33 66
-47 l51 -25 29 -110 c29 -112 36 -165 21 -165 -5 0 -17 18 -27 40 -25 56 -103
126 -155 140 -23 6 -61 8 -84 5 -54 -9 -124 -42 -137 -66 -5 -10 -17 -19 -25
-19 -11 0 -14 -6 -10 -16 3 -8 3 -26 0 -40 -5 -18 -13 -24 -33 -24 -14 0 -31
-4 -38 -8 -37 -23 -87 -246 -88 -387 0 -89 3 -107 28 -160 33 -71 63 -105 91
-105 12 0 43 13 71 28 74 41 99 95 99 221 -1 112 -31 252 -70 318 -14 24 -24
43 -22 43 2 0 27 -9 56 -20 70 -27 165 -27 215 0 l38 20 42 -24 c23 -13 61
-29 84 -35 105 -28 174 -143 196 -328 4 -37 3 -43 -14 -43 -10 0 -19 5 -19 10
0 16 -79 88 -143 132 -100 68 -170 92 -205 70 -10 -7 -8 -23 9 -78 28 -90 50
-132 89 -169 30 -28 36 -30 113 -30 45 0 105 4 133 8 l51 8 6 -38 c11 -63 8
-362 -4 -429 -6 -34 -17 -71 -24 -81 -13 -17 -15 -17 -31 7 -35 50 -171 183
-229 225 -124 88 -264 150 -265 118 -1 -33 -17 -34 -176 -12 -152 21 -161 24
-196 55 -20 18 -53 36 -74 40 -63 12 -170 -3 -227 -31 -48 -23 -49 -25 -17
-20 19 3 63 9 98 12 56 5 62 4 56 -11 -5 -12 -10 -14 -17 -7 -6 6 -15 11 -20
11 -5 0 -1 -7 8 -16 13 -14 14 -19 3 -26 -9 -7 -6 -8 10 -5 19 5 21 3 11 -9
-6 -8 -16 -14 -21 -14 -5 0 -15 -6 -22 -12 -11 -11 -9 -17 11 -35 24 -23 35
-27 62 -24 8 2 10 -2 5 -10 -4 -8 -3 -10 5 -5 7 5 10 2 9 -6 -2 -7 7 -14 20
-16 15 -2 22 -9 18 -17 -3 -8 -1 -17 4 -20 6 -4 10 1 10 11 0 11 6 15 20 11
13 -3 20 0 20 9 0 10 -7 13 -26 8 -22 -6 -25 -4 -21 12 4 11 9 31 13 46 3 16
10 25 15 23 4 -3 6 -12 3 -20 -4 -9 3 -18 19 -24 14 -6 27 -18 30 -28 2 -10 3
2 1 27 -2 35 -1 39 6 20 4 -14 8 -45 9 -70 1 -51 -22 -139 -32 -123 -4 6 -4
19 -1 30 4 12 3 14 -3 6 -7 -9 -22 1 -59 38 -129 133 -297 218 -465 234 -62 7
-68 5 -83 -16 l-16 -23 0 28 c0 19 6 29 19 33 13 3 23 20 31 52 18 77 44 111
83 111 40 0 103 -39 137 -85 27 -38 46 -43 76 -21 18 14 17 16 -27 58 -26 24
-72 58 -103 77 l-56 34 -44 -17 c-23 -9 -52 -27 -64 -39 -29 -30 -61 -106 -68
-159 -7 -53 26 -199 60 -266 30 -59 98 -123 160 -151 46 -20 47 -22 41 -53
-20 -96 -77 -162 -206 -240 -84 -51 -133 -57 -201 -25 -29 13 -64 33 -76 43
l-24 20 114 97 c62 54 143 112 180 131 62 32 65 34 43 44 -25 12 -77 2 -129
-25 -16 -8 -88 -76 -161 -151 -73 -76 -135 -135 -138 -132 -3 3 -13 55 -23
115 -23 144 -23 441 0 572 60 345 292 799 531 1038 220 220 574 406 943 495
168 40 272 49 527 45 210 -3 255 -7 362 -29z m-775 -255 c77 -25 143 -71 173
-121 30 -52 27 -151 -5 -185 -37 -39 -77 -33 -157 21 -96 65 -102 71 -166 147
-53 63 -57 71 -57 118 l0 52 73 -6 c39 -2 102 -14 139 -26z m-196 -144 c41
-27 80 -85 67 -98 -16 -16 -114 -39 -169 -39 -91 0 -188 50 -182 93 4 29 64
58 137 67 71 8 108 3 147 -23z m108 -348 c21 -6 57 -28 80 -49 40 -38 41 -39
21 -55 -79 -64 -207 -69 -287 -13 -35 24 -35 30 2 71 44 51 109 67 184 46z
m-261 -194 c70 -70 115 -277 87 -409 -13 -63 -62 -126 -98 -126 -25 0 -65 50
-83 105 -28 87 -6 287 46 412 15 36 26 40 48 18z m437 -270 c19 -14 64 -52
100 -85 72 -66 71 -74 -6 -86 -83 -12 -146 48 -173 165 l-9 43 26 -7 c15 -3
43 -17 62 -30z m-689 -372 c13 -16 12 -17 -3 -4 -10 7 -18 15 -18 17 0 8 8 3
21 -13z m-426 -38 c79 -21 199 -86 289 -157 117 -93 122 -124 23 -153 -100
-30 -219 -9 -310 54 -68 46 -125 130 -142 209 -13 63 27 76 140 47z m339 -14
c3 -5 -1 -11 -9 -15 -15 -6 -29 7 -18 18 9 9 21 8 27 -3z m-39 -27 c17 -5 36
-7 44 -5 7 1 11 -4 9 -11 -5 -13 -58 -20 -58 -8 0 4 -12 12 -26 18 -14 7 -22
17 -18 23 4 8 9 8 13 1 3 -6 20 -14 36 -18z m593 -268 c35 -33 74 -77 87 -97
33 -51 65 -162 65 -225 0 -51 -3 -58 -45 -103 -55 -58 -96 -78 -129 -63 -31
14 -111 135 -138 207 -38 106 -23 258 34 330 27 35 49 27 126 -49z m-1641 -98
c-3 -7 -5 -2 -5 12 0 14 2 19 5 13 2 -7 2 -19 0 -25z m1218 -98 c11 -18 -41
-95 -100 -148 -83 -76 -251 -150 -279 -122 -19 19 -10 88 17 128 30 47 119
109 189 133 58 20 163 25 173 9z m1587 -49 c13 -5 54 -34 91 -64 67 -53 119
-77 171 -77 27 0 35 -13 15 -26 -40 -24 47 -239 138 -343 59 -67 108 -90 193
-91 79 0 100 -10 79 -37 -237 -301 -417 -461 -634 -563 -71 -34 -137 -68 -146
-76 -29 -26 -157 -47 -299 -48 -74 0 -148 3 -163 7 -25 7 -28 11 -22 35 3 15
26 68 49 118 l44 92 80 26 c84 28 179 80 224 123 39 37 58 84 58 141 0 67 -29
92 -107 92 -129 0 -272 -49 -342 -117 -20 -19 -57 -47 -83 -63 -26 -16 -52
-39 -58 -51 -12 -21 -11 -22 21 -15 45 8 114 58 113 80 -1 10 0 15 3 13 2 -3
21 6 40 19 67 45 279 96 332 79 15 -4 21 -15 21 -36 0 -40 -20 -76 -67 -120
-75 -72 -171 -103 -356 -115 -120 -8 -123 -10 -127 -79 -6 -87 3 -95 37 -36
20 35 28 40 73 46 28 4 53 5 56 2 5 -5 -94 -157 -102 -157 -11 0 -120 79 -141
102 l-23 24 21 54 c27 71 21 180 -15 295 -14 44 -26 88 -26 98 0 30 38 96 128
222 282 395 357 450 619 454 45 0 92 -3 105 -8z m464 -202 c106 -40 181 -148
192 -275 4 -61 4 -64 -22 -75 -20 -10 -38 -9 -82 0 -46 11 -65 22 -100 58 -73
75 -154 263 -129 302 10 18 80 13 141 -10z m-1281 -1033 l50 -53 -110 -7
c-155 -8 -235 -7 -235 3 0 5 12 19 26 30 27 21 32 20 80 -15 21 -14 24 -12 74
41 30 30 56 55 59 55 3 0 29 -24 56 -54z m115 -147 c36 -17 99 -38 140 -48
l75 -17 -65 -13 c-95 -19 -333 -25 -452 -11 -96 11 -281 61 -302 81 -6 5 24 9
75 10 46 1 136 7 199 14 204 22 256 19 330 -16z"/>
<path d="M3911 6203 c-46 -49 -61 -98 -63 -205 -2 -133 42 -259 138 -388 31
-43 49 -60 52 -50 3 8 10 18 15 22 6 4 -2 21 -21 42 -69 79 -117 199 -128 325
-7 75 10 151 47 211 l22 35 18 -43 c11 -25 49 -73 92 -115 134 -131 202 -314
177 -474 -6 -36 -15 -74 -21 -84 -17 -32 -26 -28 -141 61 l-27 21 -11 -21
c-15 -28 -8 -36 61 -70 32 -17 71 -44 86 -60 15 -17 36 -30 50 -30 27 0 29 7
7 31 -14 15 -13 19 9 41 19 19 26 40 31 89 8 75 -7 234 -27 300 -20 65 -81
153 -140 202 -88 73 -104 94 -113 144 -9 45 -11 48 -42 51 -28 3 -40 -3 -71
-35z"/>
<path d="M5476 6189 c-31 -36 -52 -75 -71 -130 -8 -22 -26 -54 -40 -73 -28
-37 -31 -60 -13 -117 11 -38 13 -39 56 -39 62 0 119 19 153 51 28 26 29 30 29
126 0 111 -10 156 -42 190 -29 30 -41 29 -72 -8z m52 -52 c4 -51 -30 -107 -64
-107 -19 0 -24 4 -20 18 3 9 8 31 12 47 20 87 66 114 72 42z"/>
<path d="M6004 6119 c-172 -39 -253 -87 -299 -179 -21 -42 -65 -184 -106 -343
-10 -41 -19 -53 -65 -83 -96 -64 -141 -163 -109 -240 23 -56 52 -82 110 -100
l52 -17 -39 -57 c-37 -57 -104 -204 -154 -343 -49 -134 -69 -166 -120 -199
-72 -45 -150 -113 -175 -154 -17 -28 -20 -45 -16 -81 6 -57 21 -67 66 -43 79
41 122 90 174 199 27 58 60 121 73 141 13 20 40 84 59 144 36 112 141 329 180
370 17 18 35 24 91 29 83 7 173 36 219 71 70 53 98 183 56 252 -41 68 -154
101 -286 84 -38 -5 -72 -6 -75 -4 -2 3 7 37 21 77 17 51 29 71 39 68 78 -19
105 -22 170 -17 97 7 142 21 180 53 61 51 90 145 90 292 0 114 3 112 -136 80z"/>
<path d="M6610 5775 c-8 -9 -37 -28 -64 -42 -130 -66 -271 -207 -340 -344 -27
-52 -55 -102 -64 -111 -14 -17 -12 -69 3 -110 4 -10 -7 -18 -35 -27 -41 -12
-162 -97 -192 -134 -24 -31 -13 -39 47 -32 43 6 66 2 126 -20 83 -30 149 -30
229 0 25 9 68 20 97 25 29 4 62 15 75 24 30 22 37 20 48 -9 5 -14 16 -25 25
-25 18 0 18 1 5 73 -13 65 -10 71 60 163 51 66 157 270 146 281 -11 11 -53
-37 -86 -98 -17 -32 -59 -95 -93 -139 -34 -45 -80 -107 -103 -139 l-40 -57
-18 24 c-28 36 -132 82 -188 82 l-46 0 -7 50 c-4 27 -4 53 -1 59 3 5 1 11 -6
13 -15 5 74 135 144 209 91 95 233 209 262 209 5 0 6 -37 3 -87 -6 -78 -12
-97 -63 -204 -31 -65 -54 -124 -52 -130 8 -24 69 55 115 148 l48 96 0 123 c0
127 -9 160 -35 129z"/>
<path d="M4367 5060 c-6 -21 -9 -22 -17 -10 -6 10 -10 11 -10 3 0 -8 -7 -10
-17 -6 -16 6 -17 5 -3 -11 9 -12 16 -14 18 -7 3 9 8 8 20 -1 10 -8 13 -9 9 -1
-4 6 -2 13 4 15 6 2 9 13 7 23 -3 18 -5 17 -11 -5z"/>
<path d="M6020 4931 c0 -29 92 -161 151 -217 30 -28 72 -57 93 -64 82 -27 257
18 354 92 33 25 57 37 60 30 2 -6 12 -22 22 -34 l18 -23 53 19 c33 12 54 16
56 9 2 -6 10 -19 18 -29 13 -18 14 -17 15 11 0 44 -9 50 -69 50 -46 1 -56 5
-73 28 -22 30 -45 35 -50 11 -2 -9 -20 -22 -40 -29 l-36 -12 -11 42 c-6 23
-20 50 -31 60 -20 18 -20 18 -20 -52 0 -71 0 -71 -32 -82 -27 -10 -35 -8 -64
14 -18 14 -37 25 -41 25 -5 0 -54 28 -108 62 -160 99 -265 134 -265 89z m216
-111 c45 -41 81 -65 124 -81 33 -12 60 -25 60 -30 0 -5 -18 -13 -40 -19 -86
-23 -185 33 -234 132 -14 29 -26 58 -26 65 0 24 51 -5 116 -67z"/>
<path d="M5787 4522 c-10 -10 -17 -27 -17 -37 0 -10 -20 -37 -45 -59 -35 -33
-47 -53 -60 -101 -19 -74 -19 -89 1 -154 16 -55 71 -126 117 -150 21 -11 31
-10 69 7 52 23 81 72 98 164 16 87 -12 187 -62 220 -20 13 -23 22 -20 57 2 24
-1 48 -8 56 -17 21 -53 19 -73 -3z m80 -134 c7 -5 20 -29 29 -54 31 -81 6
-212 -50 -256 -30 -25 -48 -22 -79 10 -54 57 -74 182 -39 252 28 57 97 81 139
48z"/>
<path d="M1490 5962 c0 -45 23 -98 38 -88 4 2 5 34 4 70 -3 57 -6 66 -23 66
-16 0 -19 -7 -19 -48z"/>
<path d="M1642 5916 c18 -41 5 -52 -79 -66 -96 -15 -110 -21 -88 -40 22 -19
125 -25 168 -11 38 13 127 76 127 91 0 17 -68 50 -103 50 -35 0 -36 -1 -25
-24z"/>
<path d="M1630 4191 c0 -46 6 -52 90 -80 121 -40 257 -38 273 4 4 9 -17 14
-81 18 -48 3 -120 13 -161 22 -61 14 -76 22 -90 46 -22 39 -31 36 -31 -10z"/>
<path d="M1716 3975 c4 -18 1 -32 -11 -45 -17 -19 -17 -20 4 -20 17 0 28 -14
52 -62 28 -60 29 -61 25 -25 -4 33 -3 37 9 27 12 -10 19 -10 33 1 9 7 19 14
20 15 2 2 -6 16 -19 33 -14 19 -32 31 -46 31 -16 0 -30 11 -44 35 -25 41 -32
44 -23 10z"/>
<path d="M2400 2759 c-46 -21 -80 -46 -80 -60 0 -4 21 1 46 12 l46 21 66 -64
c37 -35 70 -70 73 -78 5 -11 9 -7 14 13 6 23 3 31 -16 45 -13 9 -43 33 -65 54
-23 21 -50 38 -60 39 -17 0 -16 2 4 11 12 6 22 15 22 20 0 10 3 11 -50 -13z"/>
<path d="M7700 2597 c0 -14 36 -66 89 -127 17 -19 31 -42 31 -51 0 -27 -37
-66 -80 -83 -46 -18 -51 -33 -14 -42 18 -5 34 -1 52 13 29 21 81 107 82 134 0
8 -16 32 -35 53 -19 21 -32 43 -28 49 3 5 1 7 -4 4 -6 -4 -26 9 -44 28 -37 37
-49 43 -49 22z"/>
<path d="M7396 2553 c-3 -21 -6 -63 -6 -93 0 -30 -3 -71 -6 -91 l-6 -37 -123
-4 c-83 -3 -128 -8 -139 -17 -9 -8 -14 -17 -10 -20 3 -3 67 -8 142 -11 161 -6
165 -10 101 -86 -39 -45 -37 -44 21 12 l62 62 12 128 c7 71 17 138 23 149 16
30 5 45 -32 45 -30 0 -33 -3 -39 -37z"/>
<path d="M6055 1743 c121 -69 143 -256 42 -361 -62 -65 -196 -115 -337 -126
-47 -4 -98 -10 -115 -13 l-30 -6 40 -14 c55 -20 195 -19 274 2 116 30 234 104
266 165 10 19 15 58 15 109 0 70 -4 87 -33 142 -33 64 -85 108 -147 124 -14 3
-3 -7 25 -22z"/>
<path d="M5150 1714 c0 -6 10 -37 23 -70 39 -98 40 -111 14 -118 -20 -6 -19
-8 16 -27 22 -12 37 -27 37 -38 0 -30 -37 -68 -85 -87 -56 -23 -58 -34 -5 -24
50 9 84 31 106 70 10 16 21 30 25 30 3 0 29 -27 58 -60 52 -59 71 -72 71 -47
0 13 -6 22 -116 168 -38 52 -87 121 -107 154 -20 33 -37 55 -37 49z"/>
<path d="M4412 1701 c-16 -10 122 -46 144 -37 41 16 -14 46 -84 46 -26 0 -53
-4 -60 -9z"/>
<path d="M4900 1490 c0 -5 9 -10 21 -10 11 0 17 5 14 10 -3 6 -13 10 -21 10
-8 0 -14 -4 -14 -10z"/>
</g>
</svg>
